<svg width="168" height="161" viewBox="0 0 168 161" fill="none" xmlns="http://www.w3.org/2000/svg">
<g clip-path="url(#clip0_876_619)">
<path d="M117.355 94.1758C118.282 91.33 119.183 88.774 119.956 86.218C122.273 78.6028 123.432 70.8295 122.917 62.8717C122.556 57.2591 120.471 52.2262 117.613 47.5359C112.463 39.1301 105.306 32.8588 97.2469 27.5624C90.8358 23.3463 84.0128 19.9999 76.9581 17.1013C76.5719 16.9432 76.1857 16.7588 75.645 16.5216C78.297 11.0671 80.9232 5.66532 83.6781 0.0263672C86.7935 1.94994 89.8574 3.68905 92.7669 5.63897C102.834 12.411 111.588 20.6059 118.36 30.8825C124.153 39.6308 127.86 49.1959 129.096 59.736C130.126 68.2999 129.148 76.5475 125.182 84.2681C123.56 87.4301 121.501 90.276 118.926 92.7529C118.462 93.2008 117.973 93.5961 117.304 94.2285L117.355 94.1758Z" fill="white"/>
<path d="M104.971 108.537C113.596 102.898 121.037 95.9939 126.985 87.5355C131.207 81.5276 132.881 74.7293 132.649 67.3248C132.315 56.7584 129.405 47.0088 124.024 38.0761C121.063 33.1486 117.639 28.5109 114.446 23.7415C114.266 23.5044 114.137 23.2409 113.854 22.7929C118.797 19.3674 123.715 15.9946 128.813 12.4636C130.332 15.7311 131.877 18.814 133.216 21.9761C137.129 31.1196 140.09 40.6057 141.403 50.5134C142.768 60.7636 142.562 70.9612 138.365 80.6317C133.55 91.7252 126.444 100.684 115.347 105.77C112.052 107.272 108.601 108.247 104.997 108.537H104.971Z" fill="white"/>
<path d="M18.2547 97.9439C12.2299 96.7845 6.2308 95.6251 0 94.4393C0.437701 93.438 0.798161 92.5685 1.21011 91.7253C6.25655 80.8426 12.4101 70.6978 20.4175 61.8441C29.7379 51.5411 41.0924 45.0853 54.6869 42.8982C66.3503 41.001 77.4731 42.8982 88.0809 48.1156C88.2612 48.221 88.4671 48.3264 88.6216 48.4318C88.6731 48.4581 88.6989 48.5635 88.7246 48.6162C85.9182 48.1683 83.086 47.5622 80.2538 47.2724C68.4874 45.9812 57.1329 47.2724 46.628 53.2275C39.3159 57.3645 33.4198 63.0825 29.326 70.5924C25.4382 77.7069 21.7306 84.9269 19.3876 92.7793C18.8984 94.4393 18.6409 96.1784 18.2805 97.9439H18.2547Z" fill="white"/>
<path d="M72.607 146.692C68.9251 151.409 65.2433 156.125 61.4584 161C59.2699 158.339 57.1072 155.862 55.0989 153.253C51.1081 147.983 46.9113 142.845 43.3067 137.311C38.5178 129.907 36.046 121.501 34.6814 112.753C33.6773 106.376 33.6258 99.9992 34.2695 93.5961C35.0419 85.7965 38.286 79.1562 43.2037 73.3064C46.8083 69.0114 51.0309 65.4541 55.8456 62.5555C55.6911 62.7663 55.5366 62.9508 55.3564 63.1616C55.1761 63.3461 54.9959 63.5305 54.7899 63.715C49.0998 69.3803 44.5426 75.8624 41.8649 83.583C38.5435 93.1745 39.6506 102.476 43.6414 111.593C48.3017 122.239 55.2534 131.093 63.5955 138.919C66.4791 141.606 69.543 144.083 72.5812 146.718H72.607V146.692Z" fill="white"/>
<path d="M19.3104 61.1853C14.9848 57.0483 11.0198 53.2802 6.823 49.275C9.65518 47.3778 12.3071 45.4542 15.0621 43.7414C25.4897 37.312 36.6639 32.8851 48.6878 30.9616C59.5789 29.2224 70.4441 29.6704 81.0005 33.0959C88.9563 35.6782 95.4704 40.7111 100.826 47.1933C103.375 50.2499 105.434 53.7282 107.7 57.0219C107.829 57.2328 107.906 57.4699 107.855 57.8125C107.597 57.5226 107.314 57.2328 107.057 56.9429C99.1007 47.9838 89.6772 41.5017 77.9881 38.8403C69.9549 37.0221 61.9476 37.7072 54.069 39.8679C41.0152 43.4516 29.8667 50.408 20.1085 59.8678C19.7738 60.184 19.5936 60.6846 19.2846 61.2116L19.3104 61.1853Z" fill="white"/>
<path d="M37.6938 129.591C32.3383 131.33 26.9057 133.095 21.2413 134.94C21.0096 133.411 20.7779 132.015 20.5977 130.618C19.4648 121.685 18.5379 112.7 19.3361 103.715C21.4216 80.2629 32.2869 62.9771 54.0174 53.7018C59.4758 51.383 65.2174 50.1445 71.0878 49.5648H71.7057C68.4873 50.8033 65.3719 51.91 62.3338 53.2011C55.6395 56.047 49.4087 59.6833 44.182 64.9534C38.2859 70.9085 34.9903 78.2602 33.085 86.4025C30.639 96.8899 31.7204 107.246 34.2436 117.496C35.222 121.527 36.5094 125.48 37.6938 129.591Z" fill="white"/>
<path d="M152.603 83.3722C157.727 86.3761 162.748 89.3274 167.974 92.384C166.455 94.1494 165.116 95.8095 163.674 97.3642C154.251 107.641 143.514 116.152 130.795 121.791C120.806 126.218 110.404 128.563 99.4869 127.219C88.2869 125.849 78.1168 121.975 69.7489 113.912C69.1825 113.385 68.5388 112.937 67.9209 112.437L68.2814 111.989C68.6418 112.173 68.9765 112.331 69.337 112.516C77.4731 116.916 85.9954 120.183 95.1356 121.448C106.516 123.003 117.021 120.394 126.624 113.965C137.644 106.587 145.42 96.2838 151.857 84.7424C152.088 84.3208 152.32 83.9255 152.603 83.3985V83.3722Z" fill="white"/>
<path d="M118.694 73.807C117.459 67.4039 115.399 61.317 112.489 55.4936C105.95 42.4239 95.4705 34.5715 81.7215 31.0406C68.024 27.5096 54.3008 27.7995 40.5776 30.8298C40.3201 30.8825 40.0884 30.9615 39.6507 31.0669C39.0585 25.2171 38.4406 19.4464 37.8484 13.4913C38.3891 13.4122 38.9298 13.2805 39.4447 13.2541C55.8199 12.4373 71.4484 15.4149 86.047 23.2409C97.5045 29.3805 106.696 38.1024 113.725 49.1959C116.583 53.6754 117.922 58.7874 118.514 64.0574C118.875 67.2721 118.9 70.5132 119.081 73.7543C118.952 73.7543 118.823 73.7807 118.694 73.807Z" fill="white"/>
<path d="M89.4712 116.073C89.7287 116.126 89.9862 116.126 90.2436 116.152C96.6289 116.995 103.014 116.811 109.322 115.572C113.39 114.755 117.561 113.991 121.346 112.357C128.221 109.406 134.271 104.927 139.549 99.5249C152.217 86.5869 158.165 70.5923 159.478 52.5951C159.606 50.9087 159.478 49.2223 159.478 47.6676H142.356C142.407 48.1156 142.433 48.3264 142.485 48.5372C144.313 59.8151 143.849 70.9349 139.987 81.7121C137.181 89.5382 133.241 96.6791 127.062 102.318C120.162 108.642 111.948 112.252 102.988 114.044C98.457 114.966 93.8225 115.388 89.2137 115.994L89.4712 116.046V116.073Z" fill="white"/>
</g>
<defs>
<clipPath id="clip0_876_619">
<rect width="168" height="161" fill="white"/>
</clipPath>
</defs>
</svg>
